<svg xmlns="http://www.w3.org/2000/svg" height="40px" viewBox="0 -960 960 960" width="40px" fill="#e3e3e3"><path d="M324-111.5Q251-143 197-197t-85.5-127Q80-397 80-480t31.5-156Q143-709 197-763t127-85.5Q397-880 480-880t156 31.5Q709-817 763-763t85.5 127Q880-563 880-480t-31.5 156Q817-251 763-197t-127 85.5Q563-80 480-80t-156-31.5Zm156-35.17L450.67-176q-6.67-6.67-9.34-13.95-2.66-7.29-2.66-15.61v-233.11q-34.38 0-58.86-24.28-24.48-24.28-24.48-58.38v-41.78L225-693.67q-37 44-57.67 98.1-20.66 54.11-20.66 115.49 0 139.41 96.87 236.41 96.88 97 236.46 97Zm41.33-2Q645.67-165 729.5-258.33q83.83-93.34 83.83-221.52 0-138.6-97.44-236.04-97.43-97.44-236.04-97.44-45.85 0-87.68 11.83-41.84 11.83-78.84 33.17V-688h147.92q18.75 0 35.92 8 17.16 8 28.83 23.33L584.25-584h62.42q17 0 29.16 12.17Q688-559.67 688-542.67v44.09q0 9.45-2.5 17.85-2.5 8.4-7.5 16.4l-156.67 234.4v81.26Z"/></svg>