<?xml version="1.0" encoding="UTF-8" standalone="no"?>
<!DOCTYPE svg PUBLIC "-//W3C//DTD SVG 1.1//EN" "http://www.w3.org/Graphics/SVG/1.1/DTD/svg11.dtd">
<svg width="100%" height="100%" viewBox="0 0 3334 3334" version="1.1" xmlns="http://www.w3.org/2000/svg" xmlns:xlink="http://www.w3.org/1999/xlink" xml:space="preserve" xmlns:serif="http://www.serif.com/" style="fill-rule:evenodd;clip-rule:evenodd;stroke-linejoin:round;stroke-miterlimit:2;">
    <g transform="matrix(1,0,0,1,-50622,-32)">
        <g id="vuelos" transform="matrix(1.343915,0,0,0.950243,36445.540161,32.24214)">
            <rect x="10548.701" y="0" width="2480.315" height="3507.874" style="fill:none;"/>
            <clipPath id="_clip1">
                <rect x="10548.701" y="0" width="2480.315" height="3507.874"/>
            </clipPath>
            <g clip-path="url(#_clip1)">
                <g transform="matrix(12.401575,0,0,17.53937,-120263.110455,0)">
                    <rect x="10530.497" y="-17.503" width="235.006" height="235.006" style="fill:none;"/>
                </g>
                <g transform="matrix(36.690357,0,0,51.890647,-189893.34403,-109928.810604)">
                    <g transform="matrix(1.967993,-1.969888,1.969888,1.967993,5449.617639,2157.62127)">
                        <path d="M21,2C20.36,2 19.746,2.254 19.293,2.707L16.4,5.6C16.152,5.848 15.791,5.948 15.451,5.863L4,3L2.981,4.019C2.591,4.409 2.591,5.043 2.981,5.433C3.057,5.509 3.145,5.572 3.241,5.62L12,10L8,14L3.618,14C3.239,14 2.893,14.214 2.724,14.553L2,16L6,18L8,22L9.447,21.276C9.786,21.107 10,20.761 10,20.382L10,16L14,12L18.38,20.759C18.627,21.253 19.227,21.453 19.721,21.206C19.817,21.158 19.905,21.095 19.981,21.019L21,20L18.137,8.549C18.052,8.209 18.152,7.848 18.4,7.6L21.293,4.707C21.746,4.254 22,3.64 22,3C22,2.448 21.552,2 21,2Z" style="fill:rgb(52,52,52);"/>
                    </g>
                </g>
            </g>
        </g>
    </g>
</svg>
