<?xml version="1.0" encoding="UTF-8" standalone="no"?>
<!DOCTYPE svg PUBLIC "-//W3C//DTD SVG 1.1//EN" "http://www.w3.org/Graphics/SVG/1.1/DTD/svg11.dtd">
<svg width="100%" height="100%" viewBox="0 0 3334 3334" version="1.1" xmlns="http://www.w3.org/2000/svg" xmlns:xlink="http://www.w3.org/1999/xlink" xml:space="preserve" xmlns:serif="http://www.serif.com/" style="fill-rule:evenodd;clip-rule:evenodd;stroke-linejoin:round;stroke-miterlimit:2;">
    <g transform="matrix(1,0,0,1,-20051,-32)">
        <g id="noches" transform="matrix(1.343915,0,0,0.950243,5874.529022,32.24214)">
            <rect x="10548.701" y="0" width="2480.315" height="3507.874" style="fill:none;"/>
            <clipPath id="_clip1">
                <rect x="10548.701" y="0" width="2480.315" height="3507.874"/>
            </clipPath>
            <g clip-path="url(#_clip1)">
                <g transform="matrix(12.401575,0,0,17.53937,-120263.110455,0)">
                    <rect x="10530.497" y="-17.503" width="235.006" height="235.006" style="fill:none;"/>
                </g>
                <g transform="matrix(36.690357,0,0,51.890647,-189893.34403,-109928.810604)">
                    <g transform="matrix(2.047113,0,0,2.051595,5472.30686,2127.652099)">
                        <path d="M12,22C17.523,22 22,17.523 22,12C22,11.537 21.306,11.461 21.067,11.857C19.929,13.741 17.861,15 15.5,15C11.91,15 9,12.09 9,8.5C9,6.138 10.259,4.071 12.143,2.933C12.539,2.693 12.463,2 12,2C6.477,2 2,6.477 2,12C2,17.523 6.477,22 12,22Z" style="fill:rgb(52,52,52);fill-rule:nonzero;"/>
                    </g>
                    <g transform="matrix(1.44716,0,0,1.44716,-2660.501967,-1154.781952)">
                        <path d="M5636.815,2261.845C5649.706,2261.845 5660.172,2272.311 5660.172,2285.202C5660.172,2298.093 5649.706,2308.558 5636.815,2308.558C5623.924,2308.558 5613.459,2298.093 5613.459,2285.202C5613.459,2272.311 5623.924,2261.845 5636.815,2261.845ZM5636.815,2264.704C5625.502,2264.704 5616.317,2273.889 5616.317,2285.202C5616.317,2296.515 5625.502,2305.7 5636.815,2305.7C5648.128,2305.7 5657.313,2296.515 5657.313,2285.202C5657.313,2273.889 5648.128,2264.704 5636.815,2264.704Z" style="fill:rgb(52,52,52);"/>
                    </g>
                </g>
            </g>
        </g>
    </g>
</svg>
